<svg width="124" height="81" viewBox="0 0 124 81" fill="none" xmlns="http://www.w3.org/2000/svg">
<path d="M2 48V81M8 37V81M14 18V81M20 31V81M26 25V81M32 46V81M38 37V81M45 63V81M51 56V81M57 69V81M63 46V81M69 56V81M75 69V81M81 70V81M87 62V81M93 48V81M99 31V81M105 23V81M111 13V81M117 31V81M124 18V81M131 2V81M137 35V81M143 25V81M149 44V81M155 54V81M161 66V81" stroke="url(#paint0_linear_30842_5416)" stroke-width="4" stroke-linecap="round"/>
<defs>
<linearGradient id="paint0_linear_30842_5416" x1="-32.5" y1="42" x2="109.5" y2="42" gradientUnits="userSpaceOnUse">
<stop offset="0.175" stop-color="white" stop-opacity="0"/>
<stop offset="0.263542" stop-color="white" stop-opacity="0"/>
<stop offset="1" stop-color="white"/>
</linearGradient>
</defs>
</svg>