<svg width="381" height="80" viewBox="0 0 381 80" fill="none" xmlns="http://www.w3.org/2000/svg">
<path d="M21.6798 77.09C21.7531 77.5233 21.9198 77.8567 22.1798 78.09C22.4398 78.3233 22.7965 78.44 23.2498 78.44C23.8765 78.44 24.3398 78.1967 24.6398 77.71C24.9465 77.2167 25.0865 76.4033 25.0598 75.27C24.9331 75.6367 24.6898 75.9267 24.3298 76.14C23.9765 76.3467 23.5698 76.45 23.1098 76.45C22.4098 76.45 21.8465 76.24 21.4198 75.82C20.9998 75.4 20.7898 74.8167 20.7898 74.07C20.7898 73.6233 20.8765 73.22 21.0498 72.86C21.2231 72.5 21.4865 72.2167 21.8398 72.01C22.1931 71.8033 22.6265 71.7 23.1398 71.7C24.0865 71.7 24.7465 72.01 25.1198 72.63C25.4931 73.2433 25.6798 74.1267 25.6798 75.28C25.6798 76.5267 25.4931 77.4633 25.1198 78.09C24.7531 78.7167 24.1198 79.03 23.2198 79.03C22.5598 79.03 22.0465 78.8533 21.6798 78.5C21.3131 78.14 21.0965 77.67 21.0298 77.09H21.6798ZM23.2198 75.85C23.5331 75.85 23.8198 75.7867 24.0798 75.66C24.3465 75.5267 24.5598 75.3333 24.7198 75.08C24.8798 74.8267 24.9598 74.5233 24.9598 74.17C24.9598 73.6233 24.8031 73.1733 24.4898 72.82C24.1831 72.4667 23.7398 72.29 23.1598 72.29C22.6465 72.29 22.2331 72.45 21.9198 72.77C21.6131 73.09 21.4598 73.5167 21.4598 74.05C21.4598 74.61 21.6131 75.05 21.9198 75.37C22.2265 75.69 22.6598 75.85 23.2198 75.85ZM26.7998 75.35C26.7998 74.2033 26.9765 73.3133 27.3298 72.68C27.6831 72.0467 28.3165 71.73 29.2298 71.73C30.1431 71.73 30.7765 72.0467 31.1298 72.68C31.4831 73.3133 31.6598 74.2033 31.6598 75.35C31.6598 76.5167 31.4831 77.42 31.1298 78.06C30.7765 78.7 30.1431 79.02 29.2298 79.02C28.3098 79.02 27.6731 78.7 27.3198 78.06C26.9731 77.42 26.7998 76.5167 26.7998 75.35ZM30.9698 75.35C30.9698 74.73 30.9265 74.2067 30.8398 73.78C30.7531 73.3533 30.5831 73.01 30.3298 72.75C30.0765 72.49 29.7098 72.36 29.2298 72.36C28.7498 72.36 28.3831 72.49 28.1298 72.75C27.8765 73.01 27.7065 73.3533 27.6198 73.78C27.5331 74.2067 27.4898 74.73 27.4898 75.35C27.4898 75.99 27.5331 76.5267 27.6198 76.96C27.7065 77.3867 27.8765 77.73 28.1298 77.99C28.3831 78.25 28.7498 78.38 29.2298 78.38C29.7098 78.38 30.0765 78.25 30.3298 77.99C30.5831 77.73 30.7531 77.3867 30.8398 76.96C30.9265 76.5267 30.9698 75.99 30.9698 75.35ZM33.0319 79.05C32.8852 79.05 32.7619 79 32.6619 78.9C32.5686 78.8 32.5219 78.6767 32.5219 78.53C32.5219 78.3833 32.5686 78.2633 32.6619 78.17C32.7619 78.07 32.8852 78.02 33.0319 78.02C33.1719 78.02 33.2886 78.07 33.3819 78.17C33.4819 78.2633 33.5319 78.3833 33.5319 78.53C33.5319 78.6767 33.4819 78.8 33.3819 78.9C33.2886 79 33.1719 79.05 33.0319 79.05ZM38.8983 72.43H35.2383V74.99C35.405 74.7567 35.6483 74.5667 35.9683 74.42C36.2883 74.2667 36.635 74.19 37.0083 74.19C37.555 74.19 38.0017 74.3033 38.3483 74.53C38.695 74.75 38.945 75.04 39.0983 75.4C39.2517 75.7533 39.3283 76.1333 39.3283 76.54C39.3283 77.0067 39.2383 77.43 39.0583 77.81C38.885 78.1833 38.615 78.48 38.2483 78.7C37.8883 78.92 37.4383 79.03 36.8983 79.03C36.2117 79.03 35.655 78.8533 35.2283 78.5C34.8017 78.14 34.5417 77.6567 34.4483 77.05H35.1383C35.225 77.49 35.425 77.83 35.7383 78.07C36.0517 78.31 36.4383 78.43 36.8983 78.43C37.4783 78.43 37.915 78.26 38.2083 77.92C38.5083 77.5733 38.6583 77.1167 38.6583 76.55C38.6583 75.9967 38.5083 75.5667 38.2083 75.26C37.9083 74.9467 37.4783 74.79 36.9183 74.79C36.5317 74.79 36.1917 74.88 35.8983 75.06C35.605 75.24 35.3883 75.4833 35.2483 75.79H34.5883V71.82H38.8983V72.43Z" fill="white"/>
<path d="M61.6945 77.09C61.7678 77.5233 61.9345 77.8567 62.1945 78.09C62.4545 78.3233 62.8111 78.44 63.2645 78.44C63.8911 78.44 64.3545 78.1967 64.6545 77.71C64.9611 77.2167 65.1011 76.4033 65.0745 75.27C64.9478 75.6367 64.7045 75.9267 64.3445 76.14C63.9911 76.3467 63.5845 76.45 63.1245 76.45C62.4245 76.45 61.8611 76.24 61.4345 75.82C61.0145 75.4 60.8045 74.8167 60.8045 74.07C60.8045 73.6233 60.8911 73.22 61.0645 72.86C61.2378 72.5 61.5011 72.2167 61.8545 72.01C62.2078 71.8033 62.6411 71.7 63.1545 71.7C64.1011 71.7 64.7611 72.01 65.1345 72.63C65.5078 73.2433 65.6945 74.1267 65.6945 75.28C65.6945 76.5267 65.5078 77.4633 65.1345 78.09C64.7678 78.7167 64.1345 79.03 63.2345 79.03C62.5745 79.03 62.0611 78.8533 61.6945 78.5C61.3278 78.14 61.1111 77.67 61.0445 77.09H61.6945ZM63.2345 75.85C63.5478 75.85 63.8345 75.7867 64.0945 75.66C64.3611 75.5267 64.5745 75.3333 64.7345 75.08C64.8945 74.8267 64.9745 74.5233 64.9745 74.17C64.9745 73.6233 64.8178 73.1733 64.5045 72.82C64.1978 72.4667 63.7545 72.29 63.1745 72.29C62.6611 72.29 62.2478 72.45 61.9345 72.77C61.6278 73.09 61.4745 73.5167 61.4745 74.05C61.4745 74.61 61.6278 75.05 61.9345 75.37C62.2411 75.69 62.6745 75.85 63.2345 75.85ZM66.5045 77.3V76.77L70.1445 71.87H70.9745V76.69H72.0445V77.3H70.9745V79H70.2845V77.3H66.5045ZM70.3145 72.64L67.3145 76.69H70.3145V72.64ZM73.0173 79.05C72.8706 79.05 72.7473 79 72.6473 78.9C72.5539 78.8 72.5073 78.6767 72.5073 78.53C72.5073 78.3833 72.5539 78.2633 72.6473 78.17C72.7473 78.07 72.8706 78.02 73.0173 78.02C73.1573 78.02 73.2739 78.07 73.3673 78.17C73.4673 78.2633 73.5173 78.3833 73.5173 78.53C73.5173 78.6767 73.4673 78.8 73.3673 78.9C73.2739 79 73.1573 79.05 73.0173 79.05ZM78.8837 72.43H75.2237V74.99C75.3903 74.7567 75.6337 74.5667 75.9537 74.42C76.2737 74.2667 76.6203 74.19 76.9937 74.19C77.5403 74.19 77.987 74.3033 78.3337 74.53C78.6803 74.75 78.9303 75.04 79.0837 75.4C79.237 75.7533 79.3137 76.1333 79.3137 76.54C79.3137 77.0067 79.2237 77.43 79.0437 77.81C78.8703 78.1833 78.6003 78.48 78.2337 78.7C77.8737 78.92 77.4237 79.03 76.8837 79.03C76.197 79.03 75.6403 78.8533 75.2137 78.5C74.787 78.14 74.527 77.6567 74.4337 77.05H75.1237C75.2103 77.49 75.4103 77.83 75.7237 78.07C76.037 78.31 76.4237 78.43 76.8837 78.43C77.4637 78.43 77.9003 78.26 78.1937 77.92C78.4937 77.5733 78.6437 77.1167 78.6437 76.55C78.6437 75.9967 78.4937 75.5667 78.1937 75.26C77.8937 74.9467 77.4637 74.79 76.9037 74.79C76.517 74.79 76.177 74.88 75.8837 75.06C75.5903 75.24 75.3737 75.4833 75.2337 75.79H74.5737V71.82H78.8837V72.43Z" fill="white"/>
<path d="M101.641 77.09C101.714 77.5233 101.881 77.8567 102.141 78.09C102.401 78.3233 102.757 78.44 103.211 78.44C103.837 78.44 104.301 78.1967 104.601 77.71C104.907 77.2167 105.047 76.4033 105.021 75.27C104.894 75.6367 104.651 75.9267 104.291 76.14C103.937 76.3467 103.531 76.45 103.071 76.45C102.371 76.45 101.807 76.24 101.381 75.82C100.961 75.4 100.751 74.8167 100.751 74.07C100.751 73.6233 100.837 73.22 101.011 72.86C101.184 72.5 101.447 72.2167 101.801 72.01C102.154 71.8033 102.587 71.7 103.101 71.7C104.047 71.7 104.707 72.01 105.081 72.63C105.454 73.2433 105.641 74.1267 105.641 75.28C105.641 76.5267 105.454 77.4633 105.081 78.09C104.714 78.7167 104.081 79.03 103.181 79.03C102.521 79.03 102.007 78.8533 101.641 78.5C101.274 78.14 101.057 77.67 100.991 77.09H101.641ZM103.181 75.85C103.494 75.85 103.781 75.7867 104.041 75.66C104.307 75.5267 104.521 75.3333 104.681 75.08C104.841 74.8267 104.921 74.5233 104.921 74.17C104.921 73.6233 104.764 73.1733 104.451 72.82C104.144 72.4667 103.701 72.29 103.121 72.29C102.607 72.29 102.194 72.45 101.881 72.77C101.574 73.09 101.421 73.5167 101.421 74.05C101.421 74.61 101.574 75.05 101.881 75.37C102.187 75.69 102.621 75.85 103.181 75.85ZM108.151 75.28C107.737 75.1467 107.421 74.9367 107.201 74.65C106.987 74.3633 106.881 74.0167 106.881 73.61C106.881 73.25 106.971 72.93 107.151 72.65C107.337 72.3633 107.607 72.14 107.961 71.98C108.314 71.8133 108.737 71.73 109.231 71.73C109.724 71.73 110.147 71.8133 110.501 71.98C110.854 72.14 111.121 72.3633 111.301 72.65C111.487 72.93 111.581 73.25 111.581 73.61C111.581 74.01 111.471 74.3567 111.251 74.65C111.037 74.9433 110.724 75.1533 110.311 75.28C110.764 75.3933 111.121 75.61 111.381 75.93C111.641 76.25 111.771 76.64 111.771 77.1C111.771 77.5267 111.664 77.9 111.451 78.22C111.244 78.5333 110.947 78.7767 110.561 78.95C110.181 79.1233 109.737 79.21 109.231 79.21C108.724 79.21 108.277 79.1233 107.891 78.95C107.511 78.7767 107.214 78.5333 107.001 78.22C106.794 77.9 106.691 77.5267 106.691 77.1C106.691 76.64 106.821 76.25 107.081 75.93C107.341 75.61 107.697 75.3933 108.151 75.28ZM110.901 73.69C110.901 73.25 110.751 72.91 110.451 72.67C110.151 72.43 109.744 72.31 109.231 72.31C108.717 72.31 108.311 72.43 108.011 72.67C107.711 72.9033 107.561 73.2433 107.561 73.69C107.561 74.1033 107.714 74.4333 108.021 74.68C108.327 74.9267 108.731 75.05 109.231 75.05C109.731 75.05 110.134 74.9267 110.441 74.68C110.747 74.4333 110.901 74.1033 110.901 73.69ZM109.231 75.59C108.684 75.59 108.237 75.7133 107.891 75.96C107.544 76.2067 107.371 76.58 107.371 77.08C107.371 77.56 107.537 77.9367 107.871 78.21C108.204 78.4833 108.657 78.62 109.231 78.62C109.797 78.62 110.247 78.4833 110.581 78.21C110.914 77.93 111.081 77.5533 111.081 77.08C111.081 76.5867 110.907 76.2167 110.561 75.97C110.221 75.7167 109.777 75.59 109.231 75.59ZM113.071 79.05C112.924 79.05 112.801 79 112.701 78.9C112.608 78.8 112.561 78.6767 112.561 78.53C112.561 78.3833 112.608 78.2633 112.701 78.17C112.801 78.07 112.924 78.02 113.071 78.02C113.211 78.02 113.328 78.07 113.421 78.17C113.521 78.2633 113.571 78.3833 113.571 78.53C113.571 78.6767 113.521 78.8 113.421 78.9C113.328 79 113.211 79.05 113.071 79.05ZM118.937 72.43H115.277V74.99C115.444 74.7567 115.687 74.5667 116.007 74.42C116.327 74.2667 116.674 74.19 117.047 74.19C117.594 74.19 118.041 74.3033 118.387 74.53C118.734 74.75 118.984 75.04 119.137 75.4C119.291 75.7533 119.367 76.1333 119.367 76.54C119.367 77.0067 119.277 77.43 119.097 77.81C118.924 78.1833 118.654 78.48 118.287 78.7C117.927 78.92 117.477 79.03 116.937 79.03C116.251 79.03 115.694 78.8533 115.267 78.5C114.841 78.14 114.581 77.6567 114.487 77.05H115.177C115.264 77.49 115.464 77.83 115.777 78.07C116.091 78.31 116.477 78.43 116.937 78.43C117.517 78.43 117.954 78.26 118.247 77.92C118.547 77.5733 118.697 77.1167 118.697 76.55C118.697 75.9967 118.547 75.5667 118.247 75.26C117.947 74.9467 117.517 74.79 116.957 74.79C116.571 74.79 116.231 74.88 115.937 75.06C115.644 75.24 115.427 75.4833 115.287 75.79H114.627V71.82H118.937V72.43Z" fill="white"/>
<path d="M139.314 72.46V71.83H141.014V79H140.304V72.46H139.314ZM142.373 75.35C142.373 74.2033 142.55 73.3133 142.903 72.68C143.257 72.0467 143.89 71.73 144.803 71.73C145.717 71.73 146.35 72.0467 146.703 72.68C147.057 73.3133 147.233 74.2033 147.233 75.35C147.233 76.5167 147.057 77.42 146.703 78.06C146.35 78.7 145.717 79.02 144.803 79.02C143.883 79.02 143.247 78.7 142.893 78.06C142.547 77.42 142.373 76.5167 142.373 75.35ZM146.543 75.35C146.543 74.73 146.5 74.2067 146.413 73.78C146.327 73.3533 146.157 73.01 145.903 72.75C145.65 72.49 145.283 72.36 144.803 72.36C144.323 72.36 143.957 72.49 143.703 72.75C143.45 73.01 143.28 73.3533 143.193 73.78C143.107 74.2067 143.063 74.73 143.063 75.35C143.063 75.99 143.107 76.5267 143.193 76.96C143.28 77.3867 143.45 77.73 143.703 77.99C143.957 78.25 144.323 78.38 144.803 78.38C145.283 78.38 145.65 78.25 145.903 77.99C146.157 77.73 146.327 77.3867 146.413 76.96C146.5 76.5267 146.543 75.99 146.543 75.35ZM148.196 78.45C149.422 77.53 150.369 76.7067 151.036 75.98C151.709 75.2467 152.046 74.53 152.046 73.83C152.046 73.37 151.929 73.0033 151.696 72.73C151.469 72.45 151.096 72.31 150.576 72.31C150.069 72.31 149.676 72.47 149.396 72.79C149.122 73.1033 148.969 73.5233 148.936 74.05H148.256C148.296 73.31 148.522 72.7367 148.936 72.33C149.356 71.9167 149.902 71.71 150.576 71.71C151.222 71.71 151.746 71.8933 152.146 72.26C152.546 72.62 152.746 73.1333 152.746 73.8C152.746 74.6067 152.409 75.39 151.736 76.15C151.069 76.9033 150.246 77.64 149.266 78.36H152.966V78.95H148.196V78.45ZM154.128 79.05C153.982 79.05 153.858 79 153.758 78.9C153.665 78.8 153.618 78.6767 153.618 78.53C153.618 78.3833 153.665 78.2633 153.758 78.17C153.858 78.07 153.982 78.02 154.128 78.02C154.268 78.02 154.385 78.07 154.478 78.17C154.578 78.2633 154.628 78.3833 154.628 78.53C154.628 78.6767 154.578 78.8 154.478 78.9C154.385 79 154.268 79.05 154.128 79.05ZM159.995 72.43H156.335V74.99C156.501 74.7567 156.745 74.5667 157.065 74.42C157.385 74.2667 157.731 74.19 158.105 74.19C158.651 74.19 159.098 74.3033 159.445 74.53C159.791 74.75 160.041 75.04 160.195 75.4C160.348 75.7533 160.425 76.1333 160.425 76.54C160.425 77.0067 160.335 77.43 160.155 77.81C159.981 78.1833 159.711 78.48 159.345 78.7C158.985 78.92 158.535 79.03 157.995 79.03C157.308 79.03 156.751 78.8533 156.325 78.5C155.898 78.14 155.638 77.6567 155.545 77.05H156.235C156.321 77.49 156.521 77.83 156.835 78.07C157.148 78.31 157.535 78.43 157.995 78.43C158.575 78.43 159.011 78.26 159.305 77.92C159.605 77.5733 159.755 77.1167 159.755 76.55C159.755 75.9967 159.605 75.5667 159.305 75.26C159.005 74.9467 158.575 74.79 158.015 74.79C157.628 74.79 157.288 74.88 156.995 75.06C156.701 75.24 156.485 75.4833 156.345 75.79H155.685V71.82H159.995V72.43Z" fill="white"/>
<path d="M179.53 72.46V71.83H181.23V79H180.52V72.46H179.53ZM182.59 75.35C182.59 74.2033 182.767 73.3133 183.12 72.68C183.474 72.0467 184.107 71.73 185.02 71.73C185.934 71.73 186.567 72.0467 186.92 72.68C187.274 73.3133 187.45 74.2033 187.45 75.35C187.45 76.5167 187.274 77.42 186.92 78.06C186.567 78.7 185.934 79.02 185.02 79.02C184.1 79.02 183.464 78.7 183.11 78.06C182.764 77.42 182.59 76.5167 182.59 75.35ZM186.76 75.35C186.76 74.73 186.717 74.2067 186.63 73.78C186.544 73.3533 186.374 73.01 186.12 72.75C185.867 72.49 185.5 72.36 185.02 72.36C184.54 72.36 184.174 72.49 183.92 72.75C183.667 73.01 183.497 73.3533 183.41 73.78C183.324 74.2067 183.28 74.73 183.28 75.35C183.28 75.99 183.324 76.5267 183.41 76.96C183.497 77.3867 183.667 77.73 183.92 77.99C184.174 78.25 184.54 78.38 185.02 78.38C185.5 78.38 185.867 78.25 186.12 77.99C186.374 77.73 186.544 77.3867 186.63 76.96C186.717 76.5267 186.76 75.99 186.76 75.35ZM192.672 73.58C192.526 72.7133 192.022 72.28 191.162 72.28C190.509 72.28 190.019 72.5333 189.692 73.04C189.366 73.5467 189.216 74.3767 189.242 75.53C189.376 75.13 189.629 74.8167 190.002 74.59C190.382 74.3567 190.816 74.24 191.302 74.24C192.002 74.24 192.556 74.4567 192.962 74.89C193.376 75.3167 193.582 75.9067 193.582 76.66C193.582 77.1 193.496 77.5 193.322 77.86C193.156 78.2133 192.896 78.4967 192.542 78.71C192.196 78.9233 191.762 79.03 191.242 79.03C190.249 79.03 189.562 78.7133 189.182 78.08C188.809 77.4467 188.622 76.55 188.622 75.39C188.622 72.9233 189.469 71.69 191.162 71.69C191.802 71.69 192.306 71.8667 192.672 72.22C193.039 72.5667 193.256 73.02 193.322 73.58H192.672ZM191.172 74.84C190.859 74.84 190.562 74.9033 190.282 75.03C190.002 75.1567 189.772 75.35 189.592 75.61C189.419 75.8633 189.332 76.1767 189.332 76.55C189.332 77.09 189.492 77.54 189.812 77.9C190.132 78.26 190.599 78.44 191.212 78.44C191.726 78.44 192.136 78.2833 192.442 77.97C192.749 77.6567 192.902 77.23 192.902 76.69C192.902 76.11 192.752 75.6567 192.452 75.33C192.152 75.0033 191.726 74.84 191.172 74.84ZM194.911 79.05C194.765 79.05 194.641 79 194.541 78.9C194.448 78.8 194.401 78.6767 194.401 78.53C194.401 78.3833 194.448 78.2633 194.541 78.17C194.641 78.07 194.765 78.02 194.911 78.02C195.051 78.02 195.168 78.07 195.261 78.17C195.361 78.2633 195.411 78.3833 195.411 78.53C195.411 78.6767 195.361 78.8 195.261 78.9C195.168 79 195.051 79.05 194.911 79.05ZM200.778 72.43H197.118V74.99C197.284 74.7567 197.528 74.5667 197.848 74.42C198.168 74.2667 198.514 74.19 198.888 74.19C199.434 74.19 199.881 74.3033 200.228 74.53C200.574 74.75 200.824 75.04 200.978 75.4C201.131 75.7533 201.208 76.1333 201.208 76.54C201.208 77.0067 201.118 77.43 200.938 77.81C200.764 78.1833 200.494 78.48 200.128 78.7C199.768 78.92 199.318 79.03 198.778 79.03C198.091 79.03 197.534 78.8533 197.108 78.5C196.681 78.14 196.421 77.6567 196.328 77.05H197.018C197.104 77.49 197.304 77.83 197.618 78.07C197.931 78.31 198.318 78.43 198.778 78.43C199.358 78.43 199.794 78.26 200.088 77.92C200.388 77.5733 200.538 77.1167 200.538 76.55C200.538 75.9967 200.388 75.5667 200.088 75.26C199.788 74.9467 199.358 74.79 198.798 74.79C198.411 74.79 198.071 74.88 197.778 75.06C197.484 75.24 197.268 75.4833 197.128 75.79H196.468V71.82H200.778V72.43Z" fill="white"/>
<path d="M220.715 72.46V71.83H222.415V79H221.705V72.46H220.715ZM223.435 72.46V71.83H225.135V79H224.425V72.46H223.435ZM226.495 75.35C226.495 74.2033 226.671 73.3133 227.025 72.68C227.378 72.0467 228.011 71.73 228.925 71.73C229.838 71.73 230.471 72.0467 230.825 72.68C231.178 73.3133 231.355 74.2033 231.355 75.35C231.355 76.5167 231.178 77.42 230.825 78.06C230.471 78.7 229.838 79.02 228.925 79.02C228.005 79.02 227.368 78.7 227.015 78.06C226.668 77.42 226.495 76.5167 226.495 75.35ZM230.665 75.35C230.665 74.73 230.621 74.2067 230.535 73.78C230.448 73.3533 230.278 73.01 230.025 72.75C229.771 72.49 229.405 72.36 228.925 72.36C228.445 72.36 228.078 72.49 227.825 72.75C227.571 73.01 227.401 73.3533 227.315 73.78C227.228 74.2067 227.185 74.73 227.185 75.35C227.185 75.99 227.228 76.5267 227.315 76.96C227.401 77.3867 227.571 77.73 227.825 77.99C228.078 78.25 228.445 78.38 228.925 78.38C229.405 78.38 229.771 78.25 230.025 77.99C230.278 77.73 230.448 77.3867 230.535 76.96C230.621 76.5267 230.665 75.99 230.665 75.35ZM232.727 79.05C232.58 79.05 232.457 79 232.357 78.9C232.264 78.8 232.217 78.6767 232.217 78.53C232.217 78.3833 232.264 78.2633 232.357 78.17C232.457 78.07 232.58 78.02 232.727 78.02C232.867 78.02 232.984 78.07 233.077 78.17C233.177 78.2633 233.227 78.3833 233.227 78.53C233.227 78.6767 233.177 78.8 233.077 78.9C232.984 79 232.867 79.05 232.727 79.05ZM238.593 72.43H234.933V74.99C235.1 74.7567 235.343 74.5667 235.663 74.42C235.983 74.2667 236.33 74.19 236.703 74.19C237.25 74.19 237.697 74.3033 238.043 74.53C238.39 74.75 238.64 75.04 238.793 75.4C238.947 75.7533 239.023 76.1333 239.023 76.54C239.023 77.0067 238.933 77.43 238.753 77.81C238.58 78.1833 238.31 78.48 237.943 78.7C237.583 78.92 237.133 79.03 236.593 79.03C235.907 79.03 235.35 78.8533 234.923 78.5C234.497 78.14 234.237 77.6567 234.143 77.05H234.833C234.92 77.49 235.12 77.83 235.433 78.07C235.747 78.31 236.133 78.43 236.593 78.43C237.173 78.43 237.61 78.26 237.903 77.92C238.203 77.5733 238.353 77.1167 238.353 76.55C238.353 75.9967 238.203 75.5667 237.903 75.26C237.603 74.9467 237.173 74.79 236.613 74.79C236.227 74.79 235.887 74.88 235.593 75.06C235.3 75.24 235.083 75.4833 234.943 75.79H234.283V71.82H238.593V72.43Z" fill="white"/>
<path d="M260.73 72.46V71.83H262.43V79H261.72V72.46H260.73ZM263.449 72.46V71.83H265.149V79H264.439V72.46H263.449ZM266.199 77.3V76.77L269.839 71.87H270.669V76.69H271.739V77.3H270.669V79H269.979V77.3H266.199ZM270.009 72.64L267.009 76.69H270.009V72.64ZM272.712 79.05C272.566 79.05 272.442 79 272.342 78.9C272.249 78.8 272.202 78.6767 272.202 78.53C272.202 78.3833 272.249 78.2633 272.342 78.17C272.442 78.07 272.566 78.02 272.712 78.02C272.852 78.02 272.969 78.07 273.062 78.17C273.162 78.2633 273.212 78.3833 273.212 78.53C273.212 78.6767 273.162 78.8 273.062 78.9C272.969 79 272.852 79.05 272.712 79.05ZM278.579 72.43H274.919V74.99C275.085 74.7567 275.329 74.5667 275.649 74.42C275.969 74.2667 276.315 74.19 276.689 74.19C277.235 74.19 277.682 74.3033 278.029 74.53C278.375 74.75 278.625 75.04 278.779 75.4C278.932 75.7533 279.009 76.1333 279.009 76.54C279.009 77.0067 278.919 77.43 278.739 77.81C278.565 78.1833 278.295 78.48 277.929 78.7C277.569 78.92 277.119 79.03 276.579 79.03C275.892 79.03 275.335 78.8533 274.909 78.5C274.482 78.14 274.222 77.6567 274.129 77.05H274.819C274.905 77.49 275.105 77.83 275.419 78.07C275.732 78.31 276.119 78.43 276.579 78.43C277.159 78.43 277.595 78.26 277.889 77.92C278.189 77.5733 278.339 77.1167 278.339 76.55C278.339 75.9967 278.189 75.5667 277.889 75.26C277.589 74.9467 277.159 74.79 276.599 74.79C276.212 74.79 275.872 74.88 275.579 75.06C275.285 75.24 275.069 75.4833 274.929 75.79H274.269V71.82H278.579V72.43Z" fill="white"/>
<path d="M300.676 72.46V71.83H302.376V79H301.666V72.46H300.676ZM303.396 72.46V71.83H305.096V79H304.386V72.46H303.396ZM307.846 75.28C307.432 75.1467 307.116 74.9367 306.896 74.65C306.682 74.3633 306.576 74.0167 306.576 73.61C306.576 73.25 306.666 72.93 306.846 72.65C307.032 72.3633 307.302 72.14 307.656 71.98C308.009 71.8133 308.432 71.73 308.926 71.73C309.419 71.73 309.842 71.8133 310.196 71.98C310.549 72.14 310.816 72.3633 310.996 72.65C311.182 72.93 311.276 73.25 311.276 73.61C311.276 74.01 311.166 74.3567 310.946 74.65C310.732 74.9433 310.419 75.1533 310.006 75.28C310.459 75.3933 310.816 75.61 311.076 75.93C311.336 76.25 311.466 76.64 311.466 77.1C311.466 77.5267 311.359 77.9 311.146 78.22C310.939 78.5333 310.642 78.7767 310.256 78.95C309.876 79.1233 309.432 79.21 308.926 79.21C308.419 79.21 307.972 79.1233 307.586 78.95C307.206 78.7767 306.909 78.5333 306.696 78.22C306.489 77.9 306.386 77.5267 306.386 77.1C306.386 76.64 306.516 76.25 306.776 75.93C307.036 75.61 307.392 75.3933 307.846 75.28ZM310.596 73.69C310.596 73.25 310.446 72.91 310.146 72.67C309.846 72.43 309.439 72.31 308.926 72.31C308.412 72.31 308.006 72.43 307.706 72.67C307.406 72.9033 307.256 73.2433 307.256 73.69C307.256 74.1033 307.409 74.4333 307.716 74.68C308.022 74.9267 308.426 75.05 308.926 75.05C309.426 75.05 309.829 74.9267 310.136 74.68C310.442 74.4333 310.596 74.1033 310.596 73.69ZM308.926 75.59C308.379 75.59 307.932 75.7133 307.586 75.96C307.239 76.2067 307.066 76.58 307.066 77.08C307.066 77.56 307.232 77.9367 307.566 78.21C307.899 78.4833 308.352 78.62 308.926 78.62C309.492 78.62 309.942 78.4833 310.276 78.21C310.609 77.93 310.776 77.5533 310.776 77.08C310.776 76.5867 310.602 76.2167 310.256 75.97C309.916 75.7167 309.472 75.59 308.926 75.59ZM312.766 79.05C312.619 79.05 312.496 79 312.396 78.9C312.303 78.8 312.256 78.6767 312.256 78.53C312.256 78.3833 312.303 78.2633 312.396 78.17C312.496 78.07 312.619 78.02 312.766 78.02C312.906 78.02 313.023 78.07 313.116 78.17C313.216 78.2633 313.266 78.3833 313.266 78.53C313.266 78.6767 313.216 78.8 313.116 78.9C313.023 79 312.906 79.05 312.766 79.05ZM318.632 72.43H314.972V74.99C315.139 74.7567 315.382 74.5667 315.702 74.42C316.022 74.2667 316.369 74.19 316.742 74.19C317.289 74.19 317.736 74.3033 318.082 74.53C318.429 74.75 318.679 75.04 318.832 75.4C318.986 75.7533 319.062 76.1333 319.062 76.54C319.062 77.0067 318.972 77.43 318.792 77.81C318.619 78.1833 318.349 78.48 317.982 78.7C317.622 78.92 317.172 79.03 316.632 79.03C315.946 79.03 315.389 78.8533 314.962 78.5C314.536 78.14 314.276 77.6567 314.182 77.05H314.872C314.959 77.49 315.159 77.83 315.472 78.07C315.786 78.31 316.172 78.43 316.632 78.43C317.212 78.43 317.649 78.26 317.942 77.92C318.242 77.5733 318.392 77.1167 318.392 76.55C318.392 75.9967 318.242 75.5667 317.942 75.26C317.642 74.9467 317.212 74.79 316.652 74.79C316.266 74.79 315.926 74.88 315.632 75.06C315.339 75.24 315.122 75.4833 314.982 75.79H314.322V71.82H318.632V72.43Z" fill="white"/>
<path d="M339.533 72.46V71.83H341.233V79H340.523V72.46H339.533ZM342.453 78.45C343.68 77.53 344.626 76.7067 345.293 75.98C345.966 75.2467 346.303 74.53 346.303 73.83C346.303 73.37 346.186 73.0033 345.953 72.73C345.726 72.45 345.353 72.31 344.833 72.31C344.326 72.31 343.933 72.47 343.653 72.79C343.38 73.1033 343.226 73.5233 343.193 74.05H342.513C342.553 73.31 342.78 72.7367 343.193 72.33C343.613 71.9167 344.16 71.71 344.833 71.71C345.48 71.71 346.003 71.8933 346.403 72.26C346.803 72.62 347.003 73.1333 347.003 73.8C347.003 74.6067 346.666 75.39 345.993 76.15C345.326 76.9033 344.503 77.64 343.523 78.36H347.223V78.95H342.453V78.45ZM347.976 78.45C349.202 77.53 350.149 76.7067 350.816 75.98C351.489 75.2467 351.826 74.53 351.826 73.83C351.826 73.37 351.709 73.0033 351.476 72.73C351.249 72.45 350.876 72.31 350.356 72.31C349.849 72.31 349.456 72.47 349.176 72.79C348.902 73.1033 348.749 73.5233 348.716 74.05H348.036C348.076 73.31 348.302 72.7367 348.716 72.33C349.136 71.9167 349.682 71.71 350.356 71.71C351.002 71.71 351.526 71.8933 351.926 72.26C352.326 72.62 352.526 73.1333 352.526 73.8C352.526 74.6067 352.189 75.39 351.516 76.15C350.849 76.9033 350.026 77.64 349.046 78.36H352.746V78.95H347.976V78.45ZM353.908 79.05C353.762 79.05 353.638 79 353.538 78.9C353.445 78.8 353.398 78.6767 353.398 78.53C353.398 78.3833 353.445 78.2633 353.538 78.17C353.638 78.07 353.762 78.02 353.908 78.02C354.048 78.02 354.165 78.07 354.258 78.17C354.358 78.2633 354.408 78.3833 354.408 78.53C354.408 78.6767 354.358 78.8 354.258 78.9C354.165 79 354.048 79.05 353.908 79.05ZM359.775 72.43H356.115V74.99C356.282 74.7567 356.525 74.5667 356.845 74.42C357.165 74.2667 357.512 74.19 357.885 74.19C358.432 74.19 358.878 74.3033 359.225 74.53C359.572 74.75 359.822 75.04 359.975 75.4C360.128 75.7533 360.205 76.1333 360.205 76.54C360.205 77.0067 360.115 77.43 359.935 77.81C359.762 78.1833 359.492 78.48 359.125 78.7C358.765 78.92 358.315 79.03 357.775 79.03C357.088 79.03 356.532 78.8533 356.105 78.5C355.678 78.14 355.418 77.6567 355.325 77.05H356.015C356.102 77.49 356.302 77.83 356.615 78.07C356.928 78.31 357.315 78.43 357.775 78.43C358.355 78.43 358.792 78.26 359.085 77.92C359.385 77.5733 359.535 77.1167 359.535 76.55C359.535 75.9967 359.385 75.5667 359.085 75.26C358.785 74.9467 358.355 74.79 357.795 74.79C357.408 74.79 357.068 74.88 356.775 75.06C356.482 75.24 356.265 75.4833 356.125 75.79H355.465V71.82H359.775V72.43Z" fill="white"/>
<line x1="0.5" y1="9.5" x2="0.5" y2="55.5" stroke="#29AF9F" stroke-linecap="round"/>
<line x1="10.5" y1="9.5" x2="10.5" y2="55.5" stroke="#29AF9F" stroke-linecap="round"/>
<line x1="20.5" y1="9.5" x2="20.5" y2="55.5" stroke="#29AF9F" stroke-linecap="round"/>
<path d="M30 2L30 64" stroke="white" stroke-opacity="0.8" stroke-width="2" stroke-linecap="round"/>
<line x1="40.5" y1="9.5" x2="40.5" y2="55.5" stroke="#29AF9F" stroke-linecap="round"/>
<line x1="50.5" y1="9.5" x2="50.5" y2="55.5" stroke="#29AF9F" stroke-linecap="round"/>
<line x1="60.5" y1="9.5" x2="60.5" y2="55.5" stroke="#29AF9F" stroke-linecap="round"/>
<path d="M70 2V64" stroke="white" stroke-opacity="0.8" stroke-width="2" stroke-linecap="round"/>
<line x1="80.5" y1="9.5" x2="80.5" y2="55.5" stroke="#29AF9F" stroke-linecap="round"/>
<line x1="90.5" y1="9.5" x2="90.5" y2="55.5" stroke="#29AF9F" stroke-linecap="round"/>
<line x1="100.5" y1="9.5" x2="100.5" y2="55.5" stroke="#29AF9F" stroke-linecap="round"/>
<path d="M110 2V64" stroke="white" stroke-opacity="0.8" stroke-width="2" stroke-linecap="round"/>
<line x1="120.5" y1="9.5" x2="120.5" y2="55.5" stroke="#29AF9F" stroke-linecap="round"/>
<line x1="130.5" y1="9.5" x2="130.5" y2="55.5" stroke="#29AF9F" stroke-linecap="round"/>
<line x1="140.5" y1="9.5" x2="140.5" y2="55.5" stroke="#29AF9F" stroke-linecap="round"/>
<path d="M150 2V64" stroke="white" stroke-opacity="0.8" stroke-width="2" stroke-linecap="round"/>
<line x1="160.5" y1="9.5" x2="160.5" y2="55.5" stroke="#29AF9F" stroke-linecap="round"/>
<line x1="170.5" y1="9.5" x2="170.5" y2="55.5" stroke="#29AF9F" stroke-linecap="round"/>
<line x1="180.5" y1="9.5" x2="180.5" y2="55.5" stroke="#29AF9F" stroke-linecap="round"/>
<path d="M190 2V64" stroke="white" stroke-opacity="0.8" stroke-width="2" stroke-linecap="round"/>
<line x1="200.5" y1="9.5" x2="200.5" y2="55.5" stroke="#29AF9F" stroke-linecap="round"/>
<line x1="210.5" y1="9.5" x2="210.5" y2="55.5" stroke="#29AF9F" stroke-linecap="round"/>
<line x1="220.5" y1="9.5" x2="220.5" y2="55.5" stroke="#29AF9F" stroke-linecap="round"/>
<path d="M230 2V64" stroke="white" stroke-opacity="0.8" stroke-width="2" stroke-linecap="round"/>
<line x1="240.5" y1="9.5" x2="240.5" y2="55.5" stroke="#29AF9F" stroke-linecap="round"/>
<line x1="250.5" y1="9.5" x2="250.5" y2="55.5" stroke="#29AF9F" stroke-linecap="round"/>
<line x1="260.5" y1="8.5" x2="260.5" y2="54.5" stroke="#29AF9F" stroke-linecap="round"/>
<path d="M270 1V63" stroke="white" stroke-opacity="0.8" stroke-width="2" stroke-linecap="round"/>
<line x1="280.5" y1="8.5" x2="280.5" y2="54.5" stroke="#29AF9F" stroke-linecap="round"/>
<line x1="290.5" y1="8.5" x2="290.5" y2="54.5" stroke="#29AF9F" stroke-linecap="round"/>
<line x1="300.5" y1="8.5" x2="300.5" y2="54.5" stroke="#29AF9F" stroke-linecap="round"/>
<path d="M310 1V63" stroke="white" stroke-opacity="0.8" stroke-width="2" stroke-linecap="round"/>
<line x1="320.5" y1="8.5" x2="320.5" y2="54.5" stroke="#29AF9F" stroke-linecap="round"/>
<line x1="330.5" y1="8.5" x2="330.5" y2="54.5" stroke="#29AF9F" stroke-linecap="round"/>
<line x1="340.5" y1="8.5" x2="340.5" y2="54.5" stroke="#29AF9F" stroke-linecap="round"/>
<path d="M350 1V63" stroke="white" stroke-opacity="0.8" stroke-width="2" stroke-linecap="round"/>
<line x1="360.5" y1="8.5" x2="360.5" y2="54.5" stroke="#29AF9F" stroke-linecap="round"/>
<line x1="370.5" y1="8.5" x2="370.5" y2="54.5" stroke="#29AF9F" stroke-linecap="round"/>
<line x1="380.5" y1="8.5" x2="380.5" y2="54.5" stroke="#29AF9F" stroke-linecap="round"/>
</svg>
